<?xml version="1.0" encoding="UTF-8" standalone="no"?>
<!-- Created with Inkscape (http://www.inkscape.org/) -->

<svg
   version="1.1"
   id="svg1"
   width="500"
   height="500"
   viewBox="0 0 500 500"
   sodipodi:docname="orgfile.svg"
   inkscape:version="1.4.3 (0d15f75042, 2025-12-25)"
   xml:space="preserve"
   xmlns:inkscape="http://www.inkscape.org/namespaces/inkscape"
   xmlns:sodipodi="http://sodipodi.sourceforge.net/DTD/sodipodi-0.dtd"
   xmlns:xlink="http://www.w3.org/1999/xlink"
   xmlns="http://www.w3.org/2000/svg"
   xmlns:svg="http://www.w3.org/2000/svg"><defs
     id="defs1"><linearGradient
       id="linearGradient2"
       inkscape:collect="always"><stop
         style="stop-color:#3b538b;stop-opacity:1;"
         offset="1"
         id="stop1" /><stop
         style="stop-color:#4b94ed;stop-opacity:1;"
         offset="1"
         id="stop2" /></linearGradient><linearGradient
       id="linearGradient334"
       inkscape:collect="always"><stop
         style="stop-color:#0e3b92;stop-opacity:1;"
         offset="0"
         id="stop335" /><stop
         style="stop-color:#558ce8;stop-opacity:1;"
         offset="1"
         id="stop336" /></linearGradient><inkscape:path-effect
       effect="attach_path"
       id="path-effect31"
       is_visible="true"
       lpeversion="1"
       startpath=""
       startposition="0"
       startcurvestart="0,0 , 20,0"
       startcurveend="0,0 , 80.056376,42.431134"
       endpath=""
       endposition="0"
       endcurvestart="0,0 , 20,0"
       endcurveend="0,0 , 172.0993,0" /><inkscape:path-effect
       effect="envelope"
       id="path-effect30"
       is_visible="true"
       lpeversion="1"
       yy="true"
       xx="true"
       bendpath1="m 143.94978,199.49899 198.64117,13.05573"
       bendpath2="M 1.9731961,-11.181445 200.61437,1.874285"
       bendpath3="M 1.9731961,-11.181445 200.61437,1.874285"
       bendpath4="M 1.9731961,-11.181445 200.61437,1.874285"
       bendpath1-nodetypes="cc" /><inkscape:path-effect
       effect="skeletal"
       id="path-effect29"
       is_visible="true"
       lpeversion="1"
       pattern="M 0,0 H 1"
       copytype="single_stretched"
       prop_scale="1"
       scale_y_rel="false"
       spacing="0"
       normal_offset="0"
       tang_offset="0"
       prop_units="false"
       vertical_pattern="false"
       hide_knot="false"
       fuse_tolerance="0" /><inkscape:path-effect
       effect="bend_path"
       id="path-effect28"
       is_visible="true"
       lpeversion="1"
       bendpath="m 198.13107,141.10368 h 94.84809"
       prop_scale="1"
       scale_y_rel="false"
       vertical="false"
       hide_knot="false" /><linearGradient
       id="linearGradient16"
       inkscape:collect="always"><stop
         style="stop-color:#578ad3;stop-opacity:1;"
         offset="0"
         id="stop16" /><stop
         style="stop-color:#1669d3;stop-opacity:1;"
         offset="1"
         id="stop17" /></linearGradient><linearGradient
       inkscape:collect="always"
       xlink:href="#linearGradient2"
       id="linearGradient12"
       x1="378.75748"
       y1="58.895344"
       x2="334.71164"
       y2="108.74521"
       gradientUnits="userSpaceOnUse"
       gradientTransform="matrix(0.99448547,0,0,1.0008052,4.2161894,2.5251478)" /><linearGradient
       inkscape:collect="always"
       xlink:href="#linearGradient16"
       id="linearGradient17"
       x1="134.95284"
       y1="89.058479"
       x2="331.87103"
       y2="353.71231"
       gradientUnits="userSpaceOnUse" /><linearGradient
       inkscape:collect="always"
       xlink:href="#linearGradient334"
       id="linearGradient336"
       x1="86.819649"
       y1="420.96582"
       x2="414.51883"
       y2="420.96582"
       gradientUnits="userSpaceOnUse"
       gradientTransform="matrix(1.0038601,0,0,1.0824742,-0.55585424,-39.234495)" /><linearGradient
       id="linearGradient4292"><stop
         id="stop4294"
         offset="0"
         style="stop-color:#411f5d;stop-opacity:1" /><stop
         id="stop4296"
         offset="1"
         style="stop-color:#5b2a85;stop-opacity:1" /></linearGradient><linearGradient
       id="linearGradient4284"><stop
         offset="0"
         style="stop-color:#8381c5;stop-opacity:1"
         id="stop4286" /><stop
         id="stop4290"
         style="stop-color:#7e55b3;stop-opacity:0.99607843"
         offset="0.56639391" /><stop
         offset="1"
         style="stop-color:#a52ecb;stop-opacity:0.99215686"
         id="stop4288" /></linearGradient><linearGradient
       id="linearGradient4898"><stop
         id="stop4278"
         style="stop-color:#bab8db;stop-opacity:1"
         offset="0" /><stop
         id="stop4280"
         style="stop-color:#5955a9;stop-opacity:0.99159664"
         offset="1" /></linearGradient><linearGradient
       id="linearGradient3294"><stop
         offset="0"
         style="stop-color:#6376e6;stop-opacity:1"
         id="stop3296" /><stop
         offset="0.50094414"
         style="stop-color:#222989;stop-opacity:1"
         id="stop3302" /><stop
         offset="1"
         style="stop-color:#00003d;stop-opacity:1"
         id="stop3298" /></linearGradient><linearGradient
       id="linearGradient3284"><stop
         offset="0"
         style="stop-color:#000000;stop-opacity:1"
         id="stop3286" /><stop
         offset="0.84845906"
         style="stop-color:#000000;stop-opacity:0.49803922"
         id="stop3292" /><stop
         offset="1"
         style="stop-color:#000000;stop-opacity:0"
         id="stop3288" /></linearGradient><linearGradient
       id="linearGradient3274"><stop
         offset="0"
         style="stop-color:#000000;stop-opacity:1"
         id="stop3276" /><stop
         offset="1"
         style="stop-color:#000000;stop-opacity:0"
         id="stop3278" /></linearGradient><linearGradient
       id="linearGradient3242"><stop
         offset="0"
         style="stop-color:#282828;stop-opacity:1"
         id="stop3244" /><stop
         offset="0.39253417"
         style="stop-color:#808080;stop-opacity:1"
         id="stop3252" /><stop
         offset="1"
         style="stop-color:#d9d9d9;stop-opacity:1"
         id="stop3246" /></linearGradient><linearGradient
       id="linearGradient3202"><stop
         offset="0"
         style="stop-color:#2b2b2b;stop-opacity:1"
         id="stop3204" /><stop
         offset="0.5"
         style="stop-color:#828383;stop-opacity:1"
         id="stop3250" /><stop
         offset="1"
         style="stop-color:#dadbdb;stop-opacity:1"
         id="stop3206" /></linearGradient><linearGradient
       id="linearGradient4966"><stop
         offset="0"
         style="stop-color:#b6b3d8;stop-opacity:1"
         id="stop4968" /><stop
         offset="1"
         style="stop-color:#b6b3d8;stop-opacity:0"
         id="stop4970" /></linearGradient><linearGradient
       id="linearGradient4876"><stop
         offset="0"
         style="stop-color:#d3d2e8;stop-opacity:1"
         id="stop4878" /><stop
         offset="1"
         style="stop-color:#5955a9;stop-opacity:0.99159664"
         id="stop4880" /></linearGradient><radialGradient
       gradientTransform="matrix(0.6817439,0,0,0.5905355,-3.8523706,-28.935273)"
       gradientUnits="userSpaceOnUse"
       xlink:href="#linearGradient4898"
       id="radialGradient4892"
       fy="-108.96888"
       fx="20.951529"
       r="266.76535"
       cy="-108.96888"
       cx="20.951529" /><radialGradient
       gradientTransform="matrix(1,0,0,0.1854103,0,383.88493)"
       gradientUnits="userSpaceOnUse"
       xlink:href="#linearGradient3274"
       id="radialGradient4944"
       fy="471.26172"
       fx="233.8876"
       r="170.49393"
       cy="471.26172"
       cx="233.8876" /><radialGradient
       gradientTransform="matrix(1,0,0,0.9121621,0,32.654948)"
       gradientUnits="userSpaceOnUse"
       xlink:href="#linearGradient4966"
       id="radialGradient4972"
       fy="371.76376"
       fx="299.70135"
       r="76.696358"
       cy="371.76376"
       cx="299.70135" /><radialGradient
       gradientTransform="matrix(0.414705,0.3300575,-0.5059004,0.6356454,346.95314,49.479585)"
       gradientUnits="userSpaceOnUse"
       xlink:href="#linearGradient3202"
       id="radialGradient3210"
       fy="390.45248"
       fx="289.44067"
       r="17.67668"
       cy="390.45248"
       cx="289.44067" /><radialGradient
       gradientTransform="matrix(0.414705,0.3300575,-0.5059004,0.6356454,448.41009,-65.398074)"
       gradientUnits="userSpaceOnUse"
       xlink:href="#linearGradient3202"
       id="radialGradient3238"
       fy="382.14804"
       fx="283.50717"
       r="17.67668"
       cy="382.14804"
       cx="283.50717" /><radialGradient
       gradientTransform="matrix(-6.5565014e-2,-5.9721765e-2,1.6871024,-1.8521705,171.90774,540.51473)"
       gradientUnits="userSpaceOnUse"
       xlink:href="#linearGradient3242"
       id="radialGradient3248"
       fy="181.18982"
       fx="418.45551"
       r="63.068935"
       cy="181.18982"
       cx="418.45551" /><radialGradient
       gradientTransform="matrix(0.4055116,-3.3440123e-2,0.1034174,4.3988695,177.23251,-1191.6649)"
       gradientUnits="userSpaceOnUse"
       xlink:href="#linearGradient3274"
       id="radialGradient3268"
       fy="357.33591"
       fx="354.51709"
       r="33.712105"
       cy="357.33591"
       cx="354.51709" /><radialGradient
       gradientTransform="matrix(-0.1339874,-0.1146812,0.3079048,-0.3597394,444.23592,395.03849)"
       gradientUnits="userSpaceOnUse"
       xlink:href="#linearGradient3274"
       id="radialGradient3280"
       fy="223.55537"
       fx="510.58469"
       r="132.28336"
       cy="223.55537"
       cx="510.58469" /><radialGradient
       gradientTransform="matrix(-1.2497569,1.3798305,-9.6289463e-2,-7.2974479e-2,674.3826,-70.590682)"
       gradientUnits="userSpaceOnUse"
       xlink:href="#linearGradient3284"
       id="radialGradient3290"
       fy="-158.17821"
       fx="284.4671"
       r="110.2972"
       cy="-158.17821"
       cx="284.4671" /><radialGradient
       gradientTransform="matrix(-0.1008165,-8.0872321e-2,1.0745309,-1.3395252,13.843287,784.79288)"
       gradientUnits="userSpaceOnUse"
       xlink:href="#linearGradient3294"
       id="radialGradient3300"
       fy="356.62274"
       fx="425.51019"
       r="143.34167"
       cy="356.62274"
       cx="425.51019" /><filter
       height="1.1062305"
       y="-0.053115233"
       width="1.1073157"
       x="-0.053657864"
       id="filter4350"
       style="color-interpolation-filters:sRGB"><feGaussianBlur
         id="feGaussianBlur4352"
         stdDeviation="8.7848425" /></filter><linearGradient
       y2="300.73987"
       x2="236.61363"
       y1="-161.8512"
       x1="-122.20192"
       spreadMethod="pad"
       gradientTransform="matrix(0.87385837,0,0,0.82818057,246.00762,250.28138)"
       gradientUnits="userSpaceOnUse"
       id="linearGradient4245"
       xlink:href="#linearGradient4284" /><linearGradient
       y2="66.018341"
       x2="173.94518"
       y1="396.6066"
       x1="447.80933"
       gradientTransform="matrix(0.98684959,0,0,0.98684959,3.0344187,2.5250397)"
       gradientUnits="userSpaceOnUse"
       id="linearGradient4247"
       xlink:href="#linearGradient4292" /></defs><sodipodi:namedview
     id="namedview1"
     pagecolor="#ffffff"
     bordercolor="#000000"
     borderopacity="0.25"
     inkscape:showpageshadow="2"
     inkscape:pageopacity="0.0"
     inkscape:pagecheckerboard="0"
     inkscape:deskcolor="#d1d1d1"
     inkscape:zoom="1.4142137"
     inkscape:cx="176.06957"
     inkscape:cy="229.10257"
     inkscape:window-width="1920"
     inkscape:window-height="1046"
     inkscape:window-x="0"
     inkscape:window-y="0"
     inkscape:window-maximized="1"
     inkscape:current-layer="g1"
     showgrid="false"
     showguides="false" /><g
     inkscape:groupmode="layer"
     inkscape:label="Image"
     id="g1"
     style="display:inline"
     sodipodi:insensitive="true"><path
       id="path2"
       style="display:inline;fill:url(#linearGradient17);stroke-width:0.611247"
       inkscape:label="main"
       d="m 322.29688,22.90625 -65.87891,0.384766 c -42.6954,0.249184 -73.64294,0.652402 -96.69922,0.771484 l -54.05078,0.279297 c -22.270464,0.115023 -21.193149,0.896716 -21.951173,19.429687 0,0 0.576699,63.255686 0.361328,165.886716 -0.55552,264.72294 0.789063,252.31836 0.789063,252.31836 -0.667109,12.90996 0.17679,13.28488 12.523437,13.35938 l 171.558595,1.03515 126.42578,-0.10156 c 19.40881,-0.0155 20.55852,-0.3178 20.60352,-20.40039 l 0.49414,-219.82226 -0.41211,-107.77149 c 0,-14.3133 0.37644,-14.57432 -6.98543,-22.63322 l -70.7841,-76.733967 c -5.33196,-5.836791 -5.02154,-6.065993 -15.99414,-6.001953 z"
       mask="none"
       clip-path="none"
       sodipodi:nodetypes="cccccscscccccccc"
       sodipodi:insensitive="true" /><path
       id="path321"
       style="display:inline;opacity:1;fill:url(#linearGradient336);stroke-width:0.63718"
       inkscape:label="banner"
       d="m 83.977742,355.76875 v 104.41013 c 0.004,-0.0221 0.006,-0.0423 0.006,-0.0423 -0.002,0.0412 -0.004,0.0816 -0.006,0.12262 v 8.55197 c 0.657469,5.49632 3.564095,5.72795 12.577665,5.7866 l 172.220853,1.12052 126.9138,-0.10994 c 16.5477,-0.0143 19.87382,-0.25155 20.52815,-13.64086 V 355.76871 Z"
       clip-path="none"
       mask="none"
       sodipodi:insensitive="true" /><text
       xml:space="preserve"
       style="font-style:normal;font-variant:normal;font-weight:600;font-stretch:normal;font-size:106.667px;font-family:'IBM Plex Sans';-inkscape-font-specification:'IBM Plex Sans Semi-Bold';writing-mode:lr-tb;direction:ltr;display:inline;fill:#ffffff;fill-opacity:1"
       x="140.34915"
       y="456.29791"
       id="text15"
       inkscape:label="ORG"
       sodipodi:insensitive="true"><tspan
         sodipodi:role="line"
         id="tspan15"
         x="140.34915"
         y="456.29791"
         style="font-style:normal;font-variant:normal;font-weight:450;font-stretch:normal;font-size:106.667px;font-family:'IBM Plex Sans';-inkscape-font-specification:'IBM Plex Sans weight=450'">ORG</tspan></text><path
       style="display:inline;fill:#161616;fill-opacity:1;stroke-width:0.945551"
       d="m 251.51724,342.13804 c -6.18477,-24.08909 -12.67361,-33.99655 -36.23843,-55.33057 -7.47651,-6.76874 -15.26461,-14.4979 -17.30689,-17.17592 -2.04229,-2.67802 -3.85044,-4.45757 -4.0181,-3.95456 -0.3895,1.16852 3.73421,7.73139 8.70455,13.85327 6.59181,8.11902 13.04676,18.10985 12.70399,19.66299 -0.26419,1.19715 -1.32294,0.85257 -5.50043,-1.79014 -2.84529,-1.79996 -9.98444,-5.70287 -15.86478,-8.67314 -18.88879,-9.54109 -26.87844,-18.23328 -32.82382,-35.71012 -3.90794,-11.48763 -5.29338,-27.78945 -3.28504,-38.65352 0.55246,-2.98858 0.87159,-5.77346 0.70916,-6.18865 -0.16243,-0.41518 -3.31741,0.64432 -7.01108,2.35445 -3.69367,1.71012 -8.37414,3.41261 -10.40107,3.7833 l -3.6853,0.67398 5.27691,-5.56912 c 2.90232,-3.06301 6.49144,-7.48384 7.97585,-9.82408 2.43049,-3.83177 15.58655,-29.21132 15.58655,-30.06825 0,-0.19367 -2.77547,1.19998 -6.1677,3.09703 -6.41133,3.58542 -16.49254,7.46282 -17.30107,6.65428 -0.25589,-0.25588 2.34745,-3.04258 5.7852,-6.19266 3.43775,-3.15007 9.09197,-9.64341 12.56494,-14.42962 14.55325,-20.05635 24.04015,-26.122 43.29987,-27.68473 7.62113,-0.61838 8.18261,-0.79442 6.14187,-1.92576 -1.23535,-0.68484 -3.60384,-1.26024 -5.26332,-1.27867 -3.40316,-0.0378 -4.97245,-1.52132 -2.43341,-2.30041 4.93025,-1.51285 17.19153,-2.7711 27.19832,-2.7911 12.92285,-0.0258 21.48381,1.17413 31.67597,4.43989 l 7.09163,2.2723 2.83665,-2.6612 c 5.53681,-5.19436 28.84505,-14.45308 31.795,-12.62992 0.51316,0.31716 -1.15254,2.78183 -3.70158,5.47706 -4.67024,4.9381 -7.33959,8.89953 -6.53737,9.70176 0.23891,0.2389 2.2945,0.0151 4.56798,-0.49738 6.62671,-1.4937 12.9918,-2.011 13.55387,-1.10154 0.2859,0.46259 -0.95977,1.75549 -2.76815,2.87314 -3.76726,2.32829 -10.41595,9.57984 -12.53777,13.67459 -1.35859,2.62186 -1.32027,2.87768 0.67254,4.49137 1.16226,0.94114 2.74943,1.71116 3.52705,1.71116 0.77762,0 5.34766,-2.87212 10.15565,-6.38247 4.80797,-3.51036 12.10269,-8.80191 16.21047,-11.75901 4.10777,-2.9571 11.88429,-8.59495 17.28114,-12.52855 9.80104,-7.14371 11.46245,-8.03526 11.46245,-6.15107 0,0.80966 -22.6207,25.67846 -40.94835,45.01789 l -3.73559,3.94181 2.01568,4.16383 c 1.66128,3.43175 1.91092,5.16601 1.4199,9.86384 -0.8438,8.07299 0.50999,11.2342 10.4262,24.34617 12.66981,16.75298 12.84466,17.11546 12.70486,26.33884 -0.14096,9.30003 -2.07715,13.64599 -7.4164,16.64682 -3.79774,2.13445 -11.10814,2.70073 -14.11193,1.09315 -0.93459,-0.50018 -2.28808,-2.30854 -3.00775,-4.01859 l -1.30849,-3.10918 -0.4759,3.30943 c -0.36364,2.52868 -0.97608,3.38048 -2.59602,3.61061 -1.78793,0.254 -2.60274,-0.70896 -5.20053,-6.14608 -2.79579,-5.85154 -3.56094,-6.68473 -8.28095,-9.01718 -3.69885,-1.82784 -6.70222,-2.5802 -10.40107,-2.60554 -2.86029,-0.0196 -6.68977,-0.46704 -8.50996,-0.99433 -6.37733,-1.84742 -12.74575,-9.49487 -15.11523,-18.15094 l -1.58626,-5.7949 -2.87835,4.18398 c -3.41967,4.97084 -5.95004,11.97763 -5.95004,16.47613 0,5.80693 2.93495,12.12507 9.88277,21.2749 16.6603,21.94054 22.23802,34.7473 22.23802,51.05976 0,16.05144 -7.34307,33.02147 -22.40084,51.76893 -4.9304,6.13852 -6.06449,5.52195 -8.69607,-4.72776 z"
       id="path4"
       inkscape:label="logo"
       sodipodi:insensitive="true" /><path
       style="display:inline;fill:url(#linearGradient12);fill-opacity:1;stroke-width:0.99764"
       d="m 336.16757,26.599275 c -0.1263,21.281829 0.0194,43.46388 0.0185,64.740261 0,14.979054 0.14644,15.224504 18.75266,15.578174 18.80812,0.93134 37.53212,0.34027 56.34803,1.18139 z"
       id="path1"
       inkscape:label="fold"
       sodipodi:nodetypes="ccccc"
       sodipodi:insensitive="true" /><text
       xml:space="preserve"
       style="font-weight:450;font-size:64px;font-family:'IBM Plex Sans';-inkscape-font-specification:'IBM Plex Sans weight=450';text-align:center;writing-mode:lr-tb;direction:ltr;text-anchor:middle;display:inline;fill:#bcd0fb;fill-opacity:1;stroke:#000000;stroke-opacity:0"
       x="288.84625"
       y="89.668167"
       id="text5"
       inkscape:label="src"
       sodipodi:insensitive="true"><tspan
         sodipodi:role="line"
         id="tspan5"
         x="288.84625"
         y="89.668167"
         style="font-style:normal;font-variant:normal;font-weight:450;font-stretch:normal;font-size:64px;font-family:'IBM Plex Sans';-inkscape-font-specification:'IBM Plex Sans weight=450';fill:#bcd0fb;fill-opacity:1">#+</tspan></text><path
       d="m 118.00295,109.11602 c 0,0 3.90624,0.27634 8.93143,-0.16655 2.03507,-0.17936 9.76171,-0.93829 15.53843,-2.20517 0,0 7.0432,-1.50733 10.81124,-2.89592 3.94265,-1.45295 6.08809,-2.6861 7.05378,-4.433418 -0.0421,-0.35802 0.29732,-1.6276 -1.52085,-2.39021 -4.64839,-1.94969 -10.03943,-1.59704 -20.70694,-1.82321 -11.82986,-0.40647 -15.76518,-2.3866 -17.8615,-3.98142 -2.01025,-1.61785 -0.9994,-6.0938 7.614,-10.036444 4.33883,-2.099503 21.34749,-5.973971 21.34749,-5.973971 -5.72822,-2.831395 -16.40952,-7.80889 -18.60518,-8.883739 -1.92571,-0.942689 -5.00744,-2.362114 -5.67544,-4.079429 -0.75739,-1.648676 1.78867,-3.068873 3.21086,-3.475575 4.58035,-1.321179 11.04638,-2.142334 16.93123,-2.234523 2.95804,-0.04635 3.43818,-0.23666 3.43818,-0.23666 4.08153,-0.677044 6.76843,-3.469518 5.64894,-7.891971 -1.00499,-4.51417 -6.3054,-7.16665 -11.34234,-6.248389 -4.74328,0.864732 -16.17585,4.18558 -16.17585,4.18558 14.13149,-0.122308 16.49672,0.11355 17.55307,1.590468 0.62384,0.872225 -0.28347,2.06818 -4.05228,2.683707 -4.10305,0.670119 -12.63214,1.477118 -12.63214,1.477118 -8.18212,0.485921 -13.9456,0.518443 -15.67421,4.178271 -1.12931,2.39101 1.2043,4.504837 2.22712,5.82799 4.32226,4.806782 10.56548,7.399205 14.58414,9.308292 1.51205,0.7183 5.94857,2.074784 5.94857,2.074784 -13.03724,-0.717051 -22.44182,3.286218 -27.95848,7.895426 -6.23952,5.771265 -3.47934,12.650415 9.30371,16.886095 7.55019,2.501758 11.2946,3.678348 22.55684,2.664178 6.63358,-0.35754 7.6793,-0.14476 7.74544,0.39955 0.0931,0.76635 -7.368,2.66999 -9.40496,3.25754 -5.18205,1.49475 -18.7663,4.51296 -18.8343,4.5276 z"
       id="path9"
       style="display:inline;fill:#d8e9ff;fill-opacity:1;fill-rule:evenodd;stroke:#000000;stroke-width:0;stroke-linecap:butt;stroke-linejoin:miter;stroke-miterlimit:4;stroke-dasharray:none;stroke-opacity:1"
       inkscape:label="emacs"
       sodipodi:insensitive="true" /><g
       id="g2"
       inkscape:label="stars"
       transform="translate(-4.5695068,3.0596337)"
       style="display:inline;mix-blend-mode:normal;fill:#b2d1f6;fill-opacity:1"
       sodipodi:insensitive="true"><text
         xml:space="preserve"
         style="font-style:normal;font-variant:normal;font-weight:bold;font-stretch:normal;font-size:64px;font-family:sans-serif;-inkscape-font-specification:'sans-serif Bold';writing-mode:lr-tb;direction:ltr;fill:#b2d1f6;fill-opacity:1"
         x="99.876358"
         y="285.26779"
         id="text1"
         inkscape:label="left"><tspan
           sodipodi:role="line"
           id="tspan1"
           x="99.876358"
           y="285.26779"
           style="font-style:normal;font-variant:normal;font-weight:bold;font-stretch:normal;font-family:'Adwaita Mono';-inkscape-font-specification:'Adwaita Mono Bold';fill:#b2d1f6;fill-opacity:1">*</tspan></text><text
         xml:space="preserve"
         style="display:inline;mix-blend-mode:normal;fill:#b2d1f6;fill-opacity:1;font-style:normal;font-variant:normal;font-weight:bold;font-stretch:normal;font-size:64px;font-family:sans-serif;-inkscape-font-specification:'sans-serif Bold';writing-mode:lr-tb;direction:ltr"
         x="99.876358"
         y="285.26779"
         id="text10"
         inkscape:label="right"
         transform="matrix(-1,0,0,1,506.73985,0)"><tspan
           sodipodi:role="line"
           id="tspan10"
           x="99.876358"
           y="285.26779"
           style="font-style:normal;font-variant:normal;font-weight:bold;font-stretch:normal;font-family:'Adwaita Mono';-inkscape-font-specification:'Adwaita Mono Bold';fill:#b2d1f6;fill-opacity:1">*</tspan></text></g><g
       id="g6"
       inkscape:label="lambdas left"
       transform="matrix(0.44764792,0,0,0.32717916,166.68969,422.53722)"
       style="display:inline;fill:#040913;fill-opacity:0.299316"
       sodipodi:insensitive="true"><path
         style="fill:#040913;fill-opacity:0.299316;stroke-width:1.33578"
         d="m 87.709958,-270.52721 -26.437832,0.0469 c -20.97976,-55.88081 -33.73267,-75.34677 -46.41556,-90.16329 0,0 -12.5740604,56.98069 -36.731775,88.39428 l -25.8,1.11825 c 15.47829,-6.18423 34.89904,-51.20479 41.1818646,-83.0322 6.57632003,-33.31425 4.30135,-85.9205 -20.6137346,-94.22556 l -2.61593,-0.87198 28.5490846,0.44604 c 33.4755704,72.26968 48.2299904,103.32871 78.3752624,170.2317 0,0 9.81637,6.12848 10.50862,8.05591 z"
         id="path3"
         sodipodi:nodetypes="cccccssccscc"
         inkscape:label="right" /><path
         style="fill:#040913;fill-opacity:0.299316;stroke-width:1.17298"
         d="m -164.7248,-432.06964 23.21565,-0.0412 c 18.4228,49.07019 29.62142,66.1637 40.75855,79.17441 0,0 11.041564,-50.03603 32.255004,-77.621 l 22.655545,-0.98196 c -13.591816,5.4305 -30.645613,44.96407 -36.162707,72.91244 -5.77482,29.25399 -3.777112,75.44872 18.101382,82.74158 l 2.29711,0.76571 -25.0696,-0.39168 c -29.395654,-63.46163 -42.351834,-90.73526 -68.823084,-149.48429 0,0 -8.61997,-5.38155 -9.22785,-7.07408 z"
         id="path5"
         sodipodi:nodetypes="cccccssccscc"
         inkscape:label="left" /></g><g
       id="g11"
       inkscape:label="lambdas right"
       transform="matrix(-0.44764792,0,0,0.32717916,330.91114,422.53722)"
       style="display:inline;fill:#040913;fill-opacity:0.299316"
       sodipodi:insensitive="true"><path
         style="fill:#040913;fill-opacity:0.299316;stroke-width:1.33578"
         d="m 87.709958,-270.52721 -26.437832,0.0469 c -20.97976,-55.88081 -33.73267,-75.34677 -46.41556,-90.16329 0,0 -12.5740604,56.98069 -36.731775,88.39428 l -25.8,1.11825 c 15.47829,-6.18423 34.89904,-51.20479 41.1818646,-83.0322 6.57632003,-33.31425 4.30135,-85.9205 -20.6137346,-94.22556 l -2.61593,-0.87198 28.5490846,0.44604 c 33.4755704,72.26968 48.2299904,103.32871 78.3752624,170.2317 0,0 9.81637,6.12848 10.50862,8.05591 z"
         id="path10"
         sodipodi:nodetypes="cccccssccscc"
         inkscape:label="right" /><path
         style="fill:#040913;fill-opacity:0.299316;stroke-width:1.17298"
         d="m -164.7248,-432.06964 23.21565,-0.0412 c 18.4228,49.07019 29.62142,66.1637 40.75855,79.17441 0,0 11.041564,-50.03603 32.255004,-77.621 l 22.655545,-0.98196 c -13.591816,5.4305 -30.645613,44.96407 -36.162707,72.91244 -5.77482,29.25399 -3.777112,75.44872 18.101382,82.74158 l 2.29711,0.76571 -25.0696,-0.39168 c -29.395654,-63.46163 -42.351834,-90.73526 -68.823084,-149.48429 0,0 -8.61997,-5.38155 -9.22785,-7.07408 z"
         id="path11"
         sodipodi:nodetypes="cccccssccscc"
         inkscape:label="left" /></g></g></svg>
