<?xml version="1.0" encoding="UTF-8" standalone="no"?>
<!-- Created with Inkscape (http://www.inkscape.org/) -->

<svg
   version="1.1"
   id="svg1"
   width="500"
   height="500"
   viewBox="0 0 500 500"
   sodipodi:docname="orgfile_alternate.svg"
   inkscape:version="1.4.3 (0d15f75042, 2025-12-25)"
   xml:space="preserve"
   xmlns:inkscape="http://www.inkscape.org/namespaces/inkscape"
   xmlns:sodipodi="http://sodipodi.sourceforge.net/DTD/sodipodi-0.dtd"
   xmlns:xlink="http://www.w3.org/1999/xlink"
   xmlns="http://www.w3.org/2000/svg"
   xmlns:svg="http://www.w3.org/2000/svg"
   xmlns:rdf="http://www.w3.org/1999/02/22-rdf-syntax-ns#"
   xmlns:cc="http://creativecommons.org/ns#"><defs
     id="defs1"><linearGradient
       id="linearGradient6"
       inkscape:collect="always"><stop
         style="stop-color:#001034;stop-opacity:1;"
         offset="0"
         id="stop5" /><stop
         style="stop-color:#a6c6ee;stop-opacity:1;"
         offset="1"
         id="stop6" /></linearGradient><linearGradient
       id="linearGradient2"
       inkscape:collect="always"><stop
         style="stop-color:#132444;stop-opacity:1;"
         offset="1"
         id="stop1" /><stop
         style="stop-color:#4b94ed;stop-opacity:1;"
         offset="1"
         id="stop2" /></linearGradient><linearGradient
       id="linearGradient334"
       inkscape:collect="always"><stop
         style="stop-color:#0e3b92;stop-opacity:1;"
         offset="0"
         id="stop335" /><stop
         style="stop-color:#558ce8;stop-opacity:1;"
         offset="1"
         id="stop336" /></linearGradient><linearGradient
       id="linearGradient327"
       inkscape:collect="always"><stop
         style="stop-color:#0b1739;stop-opacity:1;"
         offset="0"
         id="stop327" /><stop
         style="stop-color:#b2d1f6;stop-opacity:1;"
         offset="1"
         id="stop328" /></linearGradient><linearGradient
       id="linearGradient15"
       inkscape:collect="always"><stop
         style="stop-color:#122145;stop-opacity:1;"
         offset="0"
         id="stop14" /><stop
         style="stop-color:#a6c6ee;stop-opacity:1;"
         offset="1"
         id="stop15" /></linearGradient><linearGradient
       id="linearGradient16"
       inkscape:collect="always"><stop
         style="stop-color:#578ad3;stop-opacity:1;"
         offset="0"
         id="stop16" /><stop
         style="stop-color:#1669d3;stop-opacity:1;"
         offset="1"
         id="stop17" /></linearGradient><linearGradient
       inkscape:collect="always"
       xlink:href="#linearGradient2"
       id="linearGradient12"
       x1="378.75748"
       y1="58.895344"
       x2="334.71164"
       y2="108.74521"
       gradientUnits="userSpaceOnUse"
       gradientTransform="matrix(0.99448547,0,0,1.0008052,4.2161894,2.5251478)" /><linearGradient
       inkscape:collect="always"
       xlink:href="#linearGradient16"
       id="linearGradient17"
       x1="134.95284"
       y1="89.058479"
       x2="331.87103"
       y2="353.71231"
       gradientUnits="userSpaceOnUse" /><linearGradient
       inkscape:collect="always"
       xlink:href="#linearGradient15"
       id="linearGradient14"
       x1="-106.04787"
       y1="-313.23172"
       x2="239.31279"
       y2="-268.06802"
       gradientUnits="userSpaceOnUse" /><linearGradient
       inkscape:collect="always"
       xlink:href="#linearGradient327"
       id="linearGradient328"
       x1="102.8044"
       y1="262.17494"
       x2="397.96039"
       y2="262.17494"
       gradientUnits="userSpaceOnUse" /><linearGradient
       inkscape:collect="always"
       xlink:href="#linearGradient334"
       id="linearGradient336"
       x1="86.819649"
       y1="420.96582"
       x2="414.51883"
       y2="420.96582"
       gradientUnits="userSpaceOnUse"
       gradientTransform="matrix(1.0038601,0,0,1.0824742,-0.55585424,-39.234495)" /><linearGradient
       inkscape:collect="always"
       xlink:href="#linearGradient15"
       id="linearGradient3"
       gradientUnits="userSpaceOnUse"
       x1="-106.04787"
       y1="-313.23172"
       x2="239.31279"
       y2="-268.06802"
       gradientTransform="translate(4.8902918)" /><linearGradient
       inkscape:collect="always"
       xlink:href="#linearGradient6"
       id="linearGradient4"
       gradientUnits="userSpaceOnUse"
       x1="-106.04787"
       y1="-313.23172"
       x2="239.31279"
       y2="-268.06802"
       gradientTransform="translate(-4.8902918)" /><linearGradient
       inkscape:collect="always"
       xlink:href="#linearGradient327"
       id="linearGradient7"
       gradientUnits="userSpaceOnUse"
       x1="102.8044"
       y1="262.17494"
       x2="397.96039"
       y2="262.17494" /><linearGradient
       inkscape:collect="always"
       xlink:href="#linearGradient327"
       id="linearGradient8"
       gradientUnits="userSpaceOnUse"
       x1="102.8044"
       y1="262.17494"
       x2="397.96039"
       y2="262.17494" /></defs><sodipodi:namedview
     id="namedview1"
     pagecolor="#000000"
     bordercolor="#000000"
     borderopacity="0.25"
     inkscape:showpageshadow="2"
     inkscape:pageopacity="0.0"
     inkscape:pagecheckerboard="0"
     inkscape:deskcolor="#000000"
     inkscape:zoom="1.4142137"
     inkscape:cx="222.38506"
     inkscape:cy="240.06273"
     inkscape:window-width="1920"
     inkscape:window-height="1046"
     inkscape:window-x="0"
     inkscape:window-y="0"
     inkscape:window-maximized="1"
     inkscape:current-layer="g1"
     showgrid="false"
     showguides="false" /><g
     inkscape:groupmode="layer"
     inkscape:label="Image"
     id="g1"
     sodipodi:insensitive="true"><path
       id="path2"
       style="display:inline;fill:url(#linearGradient17);stroke-width:0.611247"
       inkscape:label="main"
       d="m 322.29688,22.90625 -65.87891,0.384766 c -42.6954,0.249184 -73.64294,0.652402 -96.69922,0.771484 l -54.05078,0.279297 c -22.270464,0.115023 -21.193149,0.896716 -21.951173,19.429687 0,0 0.576699,63.255686 0.361328,165.886716 -0.55552,264.72294 0.789063,252.31836 0.789063,252.31836 -0.667109,12.90996 0.17679,13.28488 12.523437,13.35938 l 171.558595,1.03515 126.42578,-0.10156 c 19.40881,-0.0155 20.55852,-0.3178 20.60352,-20.40039 l 0.49414,-219.82226 -0.41211,-107.77149 c 0,-14.3133 0.37644,-14.57432 -6.98543,-22.63322 l -70.7841,-76.733967 c -5.33196,-5.836791 -5.02154,-6.065993 -15.99414,-6.001953 z"
       mask="none"
       clip-path="none"
       sodipodi:nodetypes="cccccscscccccccc"
       sodipodi:insensitive="true" /><path
       id="path321"
       style="display:inline;opacity:1;fill:url(#linearGradient336);stroke-width:0.63718"
       inkscape:label="banner"
       d="m 83.977742,355.76875 v 104.41013 c 0.004,-0.0221 0.006,-0.0423 0.006,-0.0423 -0.002,0.0412 -0.004,0.0816 -0.006,0.12262 v 8.55197 c 0.657469,5.49632 3.564095,5.72795 12.577665,5.7866 l 172.220853,1.12052 126.9138,-0.10994 c 16.5477,-0.0143 19.87382,-0.25155 20.52815,-13.64086 V 355.76871 Z"
       clip-path="none"
       mask="none"
       sodipodi:insensitive="true" /><text
       xml:space="preserve"
       style="font-style:normal;font-variant:normal;font-weight:600;font-stretch:normal;font-size:106.667px;font-family:'IBM Plex Sans';-inkscape-font-specification:'IBM Plex Sans Semi-Bold';writing-mode:lr-tb;direction:ltr;display:inline;fill:#ffffff;fill-opacity:1"
       x="140.34915"
       y="456.29791"
       id="text15"
       inkscape:label="ORG"
       sodipodi:insensitive="true"><tspan
         sodipodi:role="line"
         id="tspan15"
         x="140.34915"
         y="456.29791"
         style="font-style:normal;font-variant:normal;font-weight:450;font-stretch:normal;font-size:106.667px;font-family:'IBM Plex Sans';-inkscape-font-specification:'IBM Plex Sans weight=450'">ORG</tspan></text><path
       style="display:inline;fill:#161616;fill-opacity:1;stroke-width:0.945551"
       d="m 251.51724,342.13804 c -6.18477,-24.08909 -12.67361,-33.99655 -36.23843,-55.33057 -7.47651,-6.76874 -15.26461,-14.4979 -17.30689,-17.17592 -2.04229,-2.67802 -3.85044,-4.45757 -4.0181,-3.95456 -0.3895,1.16852 3.73421,7.73139 8.70455,13.85327 6.59181,8.11902 13.04676,18.10985 12.70399,19.66299 -0.26419,1.19715 -1.32294,0.85257 -5.50043,-1.79014 -2.84529,-1.79996 -9.98444,-5.70287 -15.86478,-8.67314 -18.88879,-9.54109 -26.87844,-18.23328 -32.82382,-35.71012 -3.90794,-11.48763 -5.29338,-27.78945 -3.28504,-38.65352 0.55246,-2.98858 0.87159,-5.77346 0.70916,-6.18865 -0.16243,-0.41518 -3.31741,0.64432 -7.01108,2.35445 -3.69367,1.71012 -8.37414,3.41261 -10.40107,3.7833 l -3.6853,0.67398 5.27691,-5.56912 c 2.90232,-3.06301 6.49144,-7.48384 7.97585,-9.82408 2.43049,-3.83177 15.58655,-29.21132 15.58655,-30.06825 0,-0.19367 -2.77547,1.19998 -6.1677,3.09703 -6.41133,3.58542 -16.49254,7.46282 -17.30107,6.65428 -0.25589,-0.25588 2.34745,-3.04258 5.7852,-6.19266 3.43775,-3.15007 9.09197,-9.64341 12.56494,-14.42962 14.55325,-20.05635 24.04015,-26.122 43.29987,-27.68473 7.62113,-0.61838 8.18261,-0.79442 6.14187,-1.92576 -1.23535,-0.68484 -3.60384,-1.26024 -5.26332,-1.27867 -3.40316,-0.0378 -4.97245,-1.52132 -2.43341,-2.30041 4.93025,-1.51285 17.19153,-2.7711 27.19832,-2.7911 12.92285,-0.0258 21.48381,1.17413 31.67597,4.43989 l 7.09163,2.2723 2.83665,-2.6612 c 5.53681,-5.19436 28.84505,-14.45308 31.795,-12.62992 0.51316,0.31716 -1.15254,2.78183 -3.70158,5.47706 -4.67024,4.9381 -7.33959,8.89953 -6.53737,9.70176 0.23891,0.2389 2.2945,0.0151 4.56798,-0.49738 6.62671,-1.4937 12.9918,-2.011 13.55387,-1.10154 0.2859,0.46259 -0.95977,1.75549 -2.76815,2.87314 -3.76726,2.32829 -10.41595,9.57984 -12.53777,13.67459 -1.35859,2.62186 -1.32027,2.87768 0.67254,4.49137 1.16226,0.94114 2.74943,1.71116 3.52705,1.71116 0.77762,0 5.34766,-2.87212 10.15565,-6.38247 4.80797,-3.51036 12.10269,-8.80191 16.21047,-11.75901 4.10777,-2.9571 11.88429,-8.59495 17.28114,-12.52855 9.80104,-7.14371 11.46245,-8.03526 11.46245,-6.15107 0,0.80966 -22.6207,25.67846 -40.94835,45.01789 l -3.73559,3.94181 2.01568,4.16383 c 1.66128,3.43175 1.91092,5.16601 1.4199,9.86384 -0.8438,8.07299 0.50999,11.2342 10.4262,24.34617 12.66981,16.75298 12.84466,17.11546 12.70486,26.33884 -0.14096,9.30003 -2.07715,13.64599 -7.4164,16.64682 -3.79774,2.13445 -11.10814,2.70073 -14.11193,1.09315 -0.93459,-0.50018 -2.28808,-2.30854 -3.00775,-4.01859 l -1.30849,-3.10918 -0.4759,3.30943 c -0.36364,2.52868 -0.97608,3.38048 -2.59602,3.61061 -1.78793,0.254 -2.60274,-0.70896 -5.20053,-6.14608 -2.79579,-5.85154 -3.56094,-6.68473 -8.28095,-9.01718 -3.69885,-1.82784 -6.70222,-2.5802 -10.40107,-2.60554 -2.86029,-0.0196 -6.68977,-0.46704 -8.50996,-0.99433 -6.37733,-1.84742 -12.74575,-9.49487 -15.11523,-18.15094 l -1.58626,-5.7949 -2.87835,4.18398 c -3.41967,4.97084 -5.95004,11.97763 -5.95004,16.47613 0,5.80693 2.93495,12.12507 9.88277,21.2749 16.6603,21.94054 22.23802,34.7473 22.23802,51.05976 0,16.05144 -7.34307,33.02147 -22.40084,51.76893 -4.9304,6.13852 -6.06449,5.52195 -8.69607,-4.72776 z"
       id="path4"
       inkscape:label="logo"
       sodipodi:insensitive="true" /><g
       id="g5"
       inkscape:label="lambdas"
       transform="matrix(0.56657898,0,0,0.41410408,213.15475,541.9763)"
       style="display:inline;fill:url(#linearGradient14)"
       sodipodi:insensitive="true"><path
         style="fill:url(#linearGradient3);fill-opacity:1"
         d="m 355.45721,-198.50287 -19.79209,0.0351 c -15.70603,-41.83392 -25.25321,-56.40668 -34.74797,-67.49873 0,0 -9.41329,42.65732 -27.49843,66.1744 l -19.31459,0.83715 c 11.58747,-4.62968 26.12638,-38.33332 30.82988,-62.1602 4.92322,-24.93997 3.22011,-64.32246 -15.43201,-70.53986 l -1.95836,-0.65279 21.37264,0.33392 c 25.06074,54.10308 36.1063,77.35473 58.67389,127.44016 0,0 7.3488,4.58795 7.86704,6.03088 z"
         id="path6"
         sodipodi:nodetypes="cccccssccscc"
         inkscape:label="right" /><path
         style="fill:url(#linearGradient4);fill-opacity:1"
         d="m -224.63745,-401.19687 19.79209,-0.0351 c 15.70603,41.83392 25.25321,56.40668 34.74797,67.49873 0,0 9.41329,-42.65732 27.49843,-66.1744 l 19.31458,-0.83715 c -11.58746,4.62968 -26.12637,38.33332 -30.82987,62.1602 -4.92322,24.93997 -3.22011,64.32246 15.43201,70.53986 l 1.95836,0.65279 -21.37264,-0.33392 c -25.06074,-54.10308 -36.1063,-77.35473 -58.67389,-127.44016 0,0 -7.3488,-4.58795 -7.86704,-6.03088 z"
         id="path7"
         sodipodi:nodetypes="cccccssccscc"
         inkscape:label="left" /></g><g
       id="g2"
       inkscape:label="stars"
       transform="translate(-4.5695068,-31.333761)"
       style="display:inline;mix-blend-mode:normal;fill:url(#linearGradient328)"
       sodipodi:insensitive="true"><text
         xml:space="preserve"
         style="font-style:normal;font-variant:normal;font-weight:bold;font-stretch:normal;font-size:64px;font-family:sans-serif;-inkscape-font-specification:'sans-serif Bold';writing-mode:lr-tb;direction:ltr;fill:url(#linearGradient8);fill-opacity:0.960784"
         x="372.08841"
         y="287.2261"
         id="text2"
         inkscape:label="right"><tspan
           sodipodi:role="line"
           id="tspan2"
           x="372.08841"
           y="287.2261"
           style="font-style:normal;font-variant:normal;font-weight:bold;font-stretch:normal;font-family:'Adwaita Mono';-inkscape-font-specification:'Adwaita Mono Bold';fill:url(#linearGradient8);fill-opacity:0.960784">*</tspan></text><text
         xml:space="preserve"
         style="font-style:normal;font-variant:normal;font-weight:bold;font-stretch:normal;font-size:64px;font-family:sans-serif;-inkscape-font-specification:'sans-serif Bold';writing-mode:lr-tb;direction:ltr;fill:url(#linearGradient7);fill-opacity:0.960784"
         x="99.876358"
         y="285.26779"
         id="text1"
         inkscape:label="left"><tspan
           sodipodi:role="line"
           id="tspan1"
           x="99.876358"
           y="285.26779"
           style="font-style:normal;font-variant:normal;font-weight:bold;font-stretch:normal;font-family:'Adwaita Mono';-inkscape-font-specification:'Adwaita Mono Bold';fill:url(#linearGradient7);fill-opacity:0.960784">*</tspan></text></g><path
       style="display:inline;fill:url(#linearGradient12);fill-opacity:1;stroke-width:0.99764"
       d="m 336.16757,26.599275 c -0.1263,21.281829 0.0194,43.46388 0.0185,64.740261 0,14.979054 0.14644,15.224504 18.75266,15.578174 18.80812,0.93134 37.53212,0.34027 56.34803,1.18139 z"
       id="path1"
       inkscape:label="fold"
       sodipodi:nodetypes="ccccc"
       sodipodi:insensitive="true" /><text
       xml:space="preserve"
       style="font-weight:450;font-size:85.3333px;font-family:'IBM Plex Sans';-inkscape-font-specification:'IBM Plex Sans weight=450';text-align:center;writing-mode:lr-tb;direction:ltr;text-anchor:middle;fill:#bcd0fb;fill-opacity:1;stroke:#000000;stroke-opacity:0"
       x="163.84625"
       y="109.66817"
       id="text5"
       inkscape:label="src"
       sodipodi:insensitive="true"><tspan
         sodipodi:role="line"
         id="tspan5"
         x="163.84625"
         y="109.66817"
         style="font-style:normal;font-variant:normal;font-weight:450;font-stretch:normal;font-size:85.3333px;font-family:'IBM Plex Sans';-inkscape-font-specification:'IBM Plex Sans weight=450';fill:#bcd0fb;fill-opacity:1">#+</tspan></text></g><metadata
     id="metadata1"><rdf:RDF><cc:License
         rdf:about="http://creativecommons.org/licenses/by-nc/4.0/"><cc:permits
           rdf:resource="http://creativecommons.org/ns#Reproduction" /><cc:permits
           rdf:resource="http://creativecommons.org/ns#Distribution" /><cc:requires
           rdf:resource="http://creativecommons.org/ns#Notice" /><cc:requires
           rdf:resource="http://creativecommons.org/ns#Attribution" /><cc:prohibits
           rdf:resource="http://creativecommons.org/ns#CommercialUse" /><cc:permits
           rdf:resource="http://creativecommons.org/ns#DerivativeWorks" /></cc:License><cc:Work
         rdf:about=""><cc:license
           rdf:resource="http://creativecommons.org/licenses/by-nc/4.0/" /></cc:Work></rdf:RDF></metadata></svg>
